<svg xmlns="http://www.w3.org/2000/svg" width="30" height="30" viewBox="0 0 157.375 158.594">
  <defs>
    <style>
      .cls-1 {
        fill: #fff;
        fill-rule: evenodd;
      }
    </style>
  </defs>
  <path id="whatsapp" class="cls-1" d="M104.016,19.69A77.265,77.265,0,0,0,37.843,136.832L23.9,178.278l42.775-13.693A77.26,77.26,0,1,0,104.016,19.69Zm0,12.939a64.277,64.277,0,0,0-52.067,102.02l-8.034,23.88,24.716-7.911A64.3,64.3,0,1,0,104.016,32.629Zm39.919,84.309c-0.463-.84-1.757-1.385-3.693-2.443s-11.45-6.2-13.234-6.92-3.085-1.1-4.476.824-5.336,6.22-6.532,7.493-2.357,1.393-4.3.33a53.888,53.888,0,0,1-15.492-10.378A59.55,59.55,0,0,1,85.754,91.778c-1.079-2.018-.008-3.046,1.016-3.99,0.92-.852,2.059-2.232,3.089-3.345a13.491,13.491,0,0,0,2.095-3.214,3.631,3.631,0,0,0-.036-3.46c-0.457-1-4.038-10.856-5.533-14.864s-3.161-3.412-4.312-3.458-2.459-.256-3.774-0.3a7.25,7.25,0,0,0-5.351,2.269A22.121,22.121,0,0,0,65.429,77.6c-0.363,9.7,6.351,19.341,7.287,20.691s12.822,22.385,32.572,31.034,19.858,6.011,23.483,5.817,11.846-4.336,13.664-8.876S144.4,117.78,143.935,116.938Z" transform="translate(-23.906 -19.688)"/>
</svg>
