<svg xmlns="http://www.w3.org/2000/svg" width="30" height="30" viewBox="0 0 146.781 162.563">
  <defs>
    <style>
      .cls-1 {
        fill: #fff;
        fill-rule: evenodd;
      }
    </style>
  </defs>
  <path id="viber" class="cls-1" d="M157.729,38.944c-5.989-5.115-13.013-8.2-20.554-10.176a147.308,147.308,0,0,0-57.561-3.557c-9.838,1.334-19.342,3.934-28.085,8.839C41.261,39.81,34.2,48.106,31.071,59.618a117.381,117.381,0,0,0-3.731,25.025c-0.624,12.485-.218,24.888,2.978,37.069,3.7,14.094,11.739,24.476,25.517,30,1.5,0.6,2.915,1.431,4.412,2.054a2.733,2.733,0,0,1,1.792,2.98c-0.067,9.748-.035,19.5-0.035,29.68,3.619-3.492,6.117-6.061,7.935-8.115,5.426-6.133,10.56-11.237,16.218-17.069,2.868-2.957,1.663-2.813,6.112-2.74,5.235,0.086,13.458.291,18.66-.116,9.927-.777,19.771-2.04,29.348-4.916,12.163-3.652,21.908-10.164,26.852-22.462a73.038,73.038,0,0,0,3.4-9.967c4.751-19.572,4.115-39.18.145-58.76C168.833,53.188,164.943,45.105,157.729,38.944ZM97.273,50.811c0.1-1.886,1.182-2.612,2.957-2.527,15.1,0.721,26.477,5.21,35.221,16.981,5.125,6.9,7.891,16.21,8.169,24.863,0,1.285.057,2.573-.015,3.853-0.079,1.431-.7,2.524-2.314,2.541-1.626.017-2.423-.863-2.533-2.513a58.5,58.5,0,0,0-4.094-18.514c-4.718-11.485-13.765-17.675-25.392-20.663a55.7,55.7,0,0,0-9.36-1.7C98.478,53.018,97.168,52.713,97.273,50.811ZM112.512,66.85a50.25,50.25,0,0,0-9.411-2.407c-1.564-.227-2.68-1.055-2.391-2.884a2.489,2.489,0,0,1,3.05-2.247c10.541,1,18.776,4.836,24.446,13.968a28.118,28.118,0,0,1,3.976,14.855c-0.166,3.215-.656,4.045-2.495,4-2.676-.073-2.281-2.274-2.486-3.892a50.536,50.536,0,0,0-1.533-7.333A19.727,19.727,0,0,0,112.512,66.85Zm8.923,17.776a19.244,19.244,0,0,1-.249,2.094,2.218,2.218,0,0,1-2.282,1.905,2.281,2.281,0,0,1-2.334-1.864,23.08,23.08,0,0,1-.449-2.388,9.718,9.718,0,0,0-7.471-8.163c-0.519-.14-1.057-0.214-1.576-0.357-1.332-.369-2.991-0.4-3.046-2.347-0.046-1.614,1.181-2.575,3.4-2.711a12.607,12.607,0,0,1,5.188,1.308C118.161,74.807,120.752,78.613,121.435,84.626Zm22.193,44.759a22.287,22.287,0,0,1-14.946,12.985,10.868,10.868,0,0,1-7.325-.887C89.4,127.88,66.3,105.434,53.221,73.035a17.37,17.37,0,0,1-1.407-7c0.017-8.344,7.338-16.058,15.362-16.5a7.519,7.519,0,0,1,5.737,2.129,60.818,60.818,0,0,1,13.492,18.39c1.8,3.786,1.045,6.454-2.192,9.166-0.518.434-1.079,0.816-1.625,1.216-4.3,3.144-5.259,6.356-3.2,11.31a41.032,41.032,0,0,0,16.262,19.221,34.832,34.832,0,0,0,8.871,4.411,6.357,6.357,0,0,0,7.209-2.39c0.213-.263.41-0.539,0.608-0.813,4.121-5.7,8.532-6.693,14.505-2.987A119.556,119.556,0,0,1,141.374,119.9C144.477,122.547,145.27,125.666,143.628,129.385Z" transform="translate(-27.094 -23.875)"/>
</svg>
