<svg xmlns="http://www.w3.org/2000/svg" width="30" height="30" viewBox="0 0 152.781 152.782">
  <defs>
    <style>
      .cls-1 {
        fill: #fff;
        fill-rule: evenodd;
      }
    </style>
  </defs>
  <path id="instagram" class="cls-1" d="M99.651,37.176c20.4,0,22.814.078,30.869,0.445,7.448,0.34,11.493,1.584,14.185,2.63a25.293,25.293,0,0,1,14.5,14.5c1.046,2.691,2.291,6.736,2.631,14.183,0.367,8.054.445,10.47,0.445,30.865s-0.078,22.81-.445,30.865c-0.34,7.447-1.585,11.491-2.631,14.183a25.3,25.3,0,0,1-14.5,14.5c-2.692,1.046-6.737,2.291-14.185,2.63-8.054.368-10.47,0.446-30.869,0.446s-22.815-.078-30.869-0.446c-7.448-.339-11.493-1.584-14.185-2.63a25.293,25.293,0,0,1-14.5-14.5c-1.046-2.692-2.291-6.736-2.63-14.183-0.367-8.055-.445-10.47-0.445-30.865s0.078-22.811.445-30.865c0.34-7.447,1.584-11.492,2.63-14.183a25.3,25.3,0,0,1,14.5-14.5c2.692-1.046,6.737-2.29,14.185-2.63,8.056-.367,10.472-0.445,30.869-0.445m0-13.763c-20.747,0-23.348.088-31.5,0.459-8.131.371-13.684,1.662-18.544,3.551A39.06,39.06,0,0,0,27.269,49.762c-1.889,4.859-3.18,10.411-3.551,18.541-0.372,8.147-.46,10.748-0.46,31.492s0.088,23.345.46,31.492c0.371,8.13,1.662,13.683,3.551,18.541a39.06,39.06,0,0,0,22.342,22.339c4.859,1.888,10.412,3.18,18.544,3.551,8.148,0.371,10.749.459,31.5,0.459s23.349-.088,31.5-0.459,13.685-1.663,18.544-3.551a39.058,39.058,0,0,0,22.342-22.339c1.888-4.858,3.18-10.411,3.551-18.541,0.372-8.147.459-10.748,0.459-31.492s-0.087-23.345-.459-31.492c-0.371-8.13-1.663-13.682-3.551-18.541a39.058,39.058,0,0,0-22.342-22.339c-4.859-1.888-10.412-3.18-18.544-3.551s-10.749-.459-31.5-0.459h0Zm0,37.159A39.223,39.223,0,1,0,138.88,99.8,39.226,39.226,0,0,0,99.651,60.572Zm0,64.684A25.461,25.461,0,1,1,125.115,99.8,25.462,25.462,0,0,1,99.651,125.256ZM149.6,59.023a9.168,9.168,0,1,1-9.168-9.166A9.167,9.167,0,0,1,149.6,59.023Z" transform="translate(-23.25 -23.406)"/>
</svg>
