<svg xmlns="http://www.w3.org/2000/svg" width="30" height="30" viewBox="0 0 163.625 156.937">
  <defs>
    <style>
      .cls-1 {
        fill: #fff;
        fill-rule: evenodd;
      }
    </style>
  </defs>
  <path id="mail" class="cls-1" d="M127.584,98.321c-0.931-18.087-14.359-28.966-30.573-28.966H96.4c-18.712,0-29.092,14.716-29.092,31.432,0,18.712,12.557,30.535,29.022,30.535,18.354,0,30.424-13.443,31.3-29.347Zm-31.1-45.15c12.505,0,24.264,5.526,32.893,14.18v0.031c0-4.153,2.8-7.285,6.679-7.285l0.982-.006c6.072,0,7.317,5.743,7.317,7.562l0.032,64.591c-0.43,4.229,4.363,6.412,7.02,3.7,10.374-10.659,22.779-54.793-6.448-80.363-27.241-23.84-63.8-19.913-83.234-6.514C41.064,63.316,27.841,94.86,40.687,124.485c14,32.314,54.07,41.951,77.883,32.334,12.06-4.863,17.629,11.435,5.105,16.759-18.923,8.057-71.592,7.246-96.2-35.366-16.625-28.778-15.742-79.4,28.348-105.637,33.728-20.069,78.2-14.517,105.009,13.485,28.028,29.274,26.394,84.089-.945,105.394-12.386,9.683-30.784.262-30.666-13.847L129.1,133a46.023,46.023,0,0,1-32.608,13.549c-24.707,0-46.445-21.731-46.445-46.435,0-24.948,21.738-46.938,46.445-46.938h0" transform="translate(-17.531 -20.594)"/>
</svg>
